<svg width="19" height="20" viewBox="0 0 19 20" fill="none" xmlns="http://www.w3.org/2000/svg">
<path d="M0.791748 4.45834H18.2084V15.5417H0.791748V4.45834Z" fill="#3F51B5"/>
<path d="M0.791748 6.12718L9.02904 11.1618L10.2676 9.13511L2.61575 4.45834H0.791748V6.12718Z" fill="white"/>
<path d="M18.2084 4.45834H16.7799L9.12842 9.13472L10.3666 11.1618L18.2084 6.36864V4.45834Z" fill="white"/>
<path d="M10.3666 8.52393L9.12842 10.5506L17.2945 15.5417H18.2084V13.3167L10.3666 8.52393Z" fill="white"/>
<path d="M0.791748 13.5589V15.5417H2.10196L10.2676 10.551L9.02944 8.52393L0.791748 13.5589Z" fill="white"/>
<path d="M0.791748 8.41666H18.2084V11.5833H0.791748V8.41666Z" fill="white"/>
<path d="M7.91675 4.45834H11.0834V15.5417H7.91675V4.45834Z" fill="white"/>
<path d="M6.81554 8.41668L0.791748 4.73503V5.66286L5.29712 8.41668H6.81554ZM17.5391 4.45834L11.0624 8.41668H12.5805L18.2084 4.97728V4.45834H17.5391ZM13.095 11.5833L18.2084 14.7084V13.7806L14.6131 11.5833H13.095ZM6.30096 11.5833L0.791748 14.9503V15.5417H1.34275L7.81898 11.5833H6.30096ZM0.791748 9.20834H18.2084V10.7917H0.791748V9.20834Z" fill="#E53935"/>
<path d="M8.7085 4.45834H10.2918V15.5417H8.7085V4.45834Z" fill="#E53935"/>
</svg>
