<svg width="118" height="30" viewBox="0 0 118 30" fill="none" xmlns="http://www.w3.org/2000/svg">
<path fill-rule="evenodd" clip-rule="evenodd" d="M63.7418 21.9732C64.7391 21.9732 65.5828 22.6134 65.9033 23.5024H61.5803C61.9008 22.6134 62.7438 21.9732 63.7418 21.9732ZM68.6977 24.2795C68.6977 21.5466 66.4747 19.3229 63.7418 19.3229C61.0089 19.3229 58.7852 21.5466 58.7852 24.2795C58.7852 27.0124 61.0089 29.2354 63.7418 29.2354C65.2623 29.2354 66.6233 28.5454 67.5335 27.4646L65.4891 25.7663C65.0662 26.2624 64.4435 26.5851 63.7418 26.5851C62.7979 26.5851 61.9879 26.0144 61.6316 25.2015H68.6062L68.6172 25.1444C68.6677 24.8634 68.6977 24.5751 68.6977 24.2795ZM23.6325 26.5851H19.6784C18.4074 26.5851 17.3728 25.5498 17.3728 24.2788C17.3728 23.0071 18.4074 21.9724 19.6784 21.9724H23.6325V19.3229H19.6784C16.9455 19.3229 14.7225 21.5458 14.7225 24.2788C14.7225 27.0117 16.9455 29.2354 19.6784 29.2354H23.6325V26.5851ZM78.646 26.5851H74.6911C73.4194 26.5851 72.3847 25.5498 72.3847 24.2788C72.3847 23.0071 73.4194 21.9724 74.6911 21.9724H78.6452V19.3229H74.6911C71.9581 19.3229 69.7345 21.5458 69.7345 24.2788C69.7345 27.0117 71.9581 29.2354 74.6911 29.2354H78.6452L78.646 26.5851ZM29.885 21.9732C28.6133 21.9732 27.5786 23.0071 27.5786 24.2788C27.5786 25.5505 28.6133 26.5851 29.8842 26.5851C31.1559 26.5851 32.1906 25.5505 32.1906 24.2788C32.1906 23.0071 31.1567 21.9732 29.885 21.9732ZM29.8842 29.2354C27.1513 29.2354 24.9284 27.0124 24.9284 24.2788C24.9284 21.5466 27.1513 19.3229 29.8842 19.3229C32.6172 19.3229 34.8408 21.5466 34.8408 24.2788C34.8408 27.0124 32.6172 29.2354 29.8842 29.2354ZM40.9528 19.339C38.2177 19.339 35.9969 21.5649 35.9969 24.2949V29.2354H38.6472V24.2949C38.6472 23.0232 39.6803 21.9893 40.9528 21.9893C42.2252 21.9893 43.2584 23.0232 43.2584 24.2949V29.2354H45.9086V24.2949C45.9086 21.5656 43.6879 19.339 40.9528 19.339ZM52.524 19.339C49.7947 19.339 47.5681 21.5649 47.5681 24.2949V29.2354H50.2184V24.2949C50.2184 23.0232 51.2574 21.9893 52.524 21.9893C53.7972 21.9893 54.8303 23.0232 54.8303 24.2949V29.2354H57.4806V24.2949C57.4806 21.5656 55.2599 19.339 52.524 19.339ZM88.9118 19.3068V21.9571H85.7523V29.2346H83.1021V21.9571H79.9425V19.3068H88.9118Z" fill="#191919"/>
<mask id="mask0_404_406" style="mask-type:luminance" maskUnits="userSpaceOnUse" x="0" y="0" width="118" height="17">
<path d="M0.411743 0.469025H117.228V16.391H0.411743V0.469025Z" fill="white"/>
</mask>
<g mask="url(#mask0_404_406)">
<path fill-rule="evenodd" clip-rule="evenodd" d="M109.267 16.391H8.37199C3.97662 16.391 0.411743 12.8261 0.411743 8.43C0.411743 4.03244 3.97662 0.469025 8.37272 0.469025H109.268C113.665 0.469025 117.229 4.03244 117.229 8.43C117.229 12.8261 113.665 16.391 109.268 16.391" fill="#FFE907"/>
</g>
<path fill-rule="evenodd" clip-rule="evenodd" d="M23.6324 10.8H19.6783C18.4073 10.8 17.3727 9.76464 17.3727 8.49366C17.3727 7.22196 18.4073 6.18805 19.6783 6.18805H23.6324V3.53708H19.6783C16.9454 3.53708 14.7224 5.76147 14.7224 8.49366C14.7224 11.2266 16.9454 13.4495 19.6783 13.4495H23.6324V10.8ZM29.8849 6.18805C28.6132 6.18805 27.5785 7.22196 27.5785 8.49293C27.5785 9.76464 28.6132 10.8 29.8842 10.8C31.1559 10.8 32.1905 9.76464 32.1905 8.49366C32.1905 7.22196 31.1559 6.18879 29.8842 6.18879M29.8842 13.4503C27.1512 13.4503 24.9283 11.2273 24.9283 8.49366C24.9283 5.76074 27.1512 3.53781 29.8842 3.53781C32.6171 3.53781 34.8407 5.76074 34.8407 8.49366C34.8407 11.2273 32.6171 13.4503 29.8842 13.4503ZM48.2149 3.53781C46.7778 3.53781 45.49 4.15757 44.5834 5.13293C43.6776 4.15757 42.389 3.53781 40.9527 3.53781C38.2176 3.53781 35.9968 5.76366 35.9968 8.49366V13.5132H38.6471V8.49366C38.6471 7.22196 39.6803 6.18805 40.952 6.18805C42.2251 6.18805 43.2583 7.22196 43.2583 8.49366V13.5132H45.9085V8.49366C45.9085 7.22196 46.9425 6.18805 48.2149 6.18805C49.4866 6.18805 50.5205 7.22196 50.5205 8.49366V13.5132H53.1707V8.49366C53.1707 5.7644 50.95 3.53781 48.2149 3.53781ZM67.2444 3.53781C65.8081 3.53781 64.5195 4.15757 63.6129 5.13293C62.7071 4.15757 61.4185 3.53781 59.9822 3.53781C57.2471 3.53781 55.0264 5.76366 55.0264 8.49366V13.5132H57.6759V8.49366C57.6759 7.22196 58.7098 6.18805 59.9822 6.18805C61.2546 6.18805 62.2878 7.22196 62.2878 8.49366V13.5132H64.9388V8.49366C64.9388 7.22196 65.972 6.18805 67.2437 6.18805C68.5168 6.18805 69.55 7.22196 69.55 8.49366V13.5132H72.2003V8.49366C72.2003 5.7644 69.9795 3.53781 67.2444 3.53781ZM93.122 4.70927L91.2356 6.59562C90.8639 6.34171 90.4132 6.18805 89.931 6.18805C88.6593 6.18805 87.6254 7.22196 87.6254 8.49366V13.5132H84.9751V8.49366C84.9751 5.7644 87.1966 3.53781 89.931 3.53781C91.1449 3.53781 92.2578 3.98342 93.122 4.70927ZM101.757 10.8H97.8027C96.5317 10.8 95.4971 9.76464 95.4971 8.49366C95.4971 7.22196 96.5317 6.18805 97.8027 6.18805H101.757V3.53708H97.8027C95.0698 3.53708 92.8461 5.76147 92.8461 8.49366C92.8461 11.2266 95.0705 13.4495 97.8027 13.4495H101.757V10.8ZM78.6715 6.18805C79.6695 6.18805 80.5125 6.8283 80.8337 7.71732H76.5107C76.8312 6.8283 77.6742 6.18805 78.6715 6.18805ZM83.6281 8.4944C83.6281 5.76074 81.4044 3.53781 78.6715 3.53781C75.9385 3.53781 73.7156 5.76074 73.7156 8.4944C73.7156 11.2273 75.9385 13.4503 78.6715 13.4503C80.192 13.4503 81.5537 12.7603 82.4639 11.6795L80.4195 9.98123C79.9959 10.4773 79.3739 10.8 78.6715 10.8C77.7283 10.8 76.9183 10.2293 76.5612 9.41635H83.5366L83.5468 9.35927C83.5981 9.0783 83.6281 8.79001 83.6281 8.4944ZM107.799 6.18805C108.797 6.18805 109.64 6.8283 109.96 7.71732H105.638C105.958 6.8283 106.801 6.18805 107.799 6.18805ZM112.755 8.4944C112.755 5.76074 110.532 3.53781 107.799 3.53781C105.066 3.53781 102.843 5.76074 102.843 8.4944C102.843 11.2273 105.066 13.4503 107.799 13.4503C109.32 13.4503 110.681 12.7603 111.591 11.6795L109.547 9.98123C109.124 10.4773 108.501 10.8 107.799 10.8C106.855 10.8 106.045 10.2293 105.688 9.41635H112.664L112.675 9.35927C112.724 9.0783 112.755 8.79001 112.755 8.4944ZM9.19659 7.13123C10.0651 7.13123 10.7983 7.68806 11.0771 8.46147H7.31611C7.59489 7.68806 8.32806 7.13123 9.19659 7.13123ZM13.5093 9.13757C13.5093 6.75952 11.5746 4.82488 9.19659 4.82488C6.81854 4.82488 4.88391 6.75952 4.88391 9.13757C4.88391 11.5156 6.81854 13.4495 9.19659 13.4495C10.5195 13.4495 11.7042 12.8495 12.4959 11.9093L10.7178 10.4312C10.349 10.8637 9.80757 11.1439 9.19659 11.1439C8.37562 11.1439 7.67025 10.6478 7.36001 9.94025H13.4288L13.439 9.89123C13.4822 9.6461 13.5093 9.39513 13.5093 9.13757Z" fill="#191919"/>
</svg>
