<svg width="65" height="30" viewBox="0 0 65 30" fill="none" xmlns="http://www.w3.org/2000/svg">
<g clip-path="url(#clip0_404_399)">
<mask id="mask0_404_399" style="mask-type:luminance" maskUnits="userSpaceOnUse" x="0" y="0" width="65" height="30">
<path d="M0 0H64.3826V29.5271H0V0Z" fill="white"/>
</mask>
<g mask="url(#mask0_404_399)">
<path fill-rule="evenodd" clip-rule="evenodd" d="M54.2912 8.17588H64.3826V0H54.2912C49.8582 0 46.0306 2.55 44.1662 6.25765C42.2576 2.45471 38.1997 0.000882353 33.7924 0.000882353H22.6729V0.0414706H22.665C22.6606 0.0202941 22.6474 0.000882353 22.6244 0.000882353H17.6885C17.2692 0.00076646 16.854 0.0832536 16.4666 0.243632C16.0792 0.404011 15.7272 0.63914 15.4306 0.935589C15.1341 1.23204 14.8989 1.584 14.7384 1.97137C14.5779 2.35874 14.4953 2.77394 14.4953 3.19324V11.1106C14.4953 12.7871 13.2953 14.3338 11.6259 14.4829C11.1884 14.5228 10.7475 14.471 10.3311 14.3311C9.91475 14.1911 9.5321 13.9659 9.20755 13.6699C8.88299 13.3739 8.62364 13.0136 8.44602 12.6118C8.2684 12.2101 8.1764 11.7757 8.17588 11.3365V0.0485294C8.17588 0.0358926 8.17086 0.0237734 8.16193 0.0148379C8.15299 0.0059023 8.14087 0.000882353 8.12823 0.000882353H0.0485294C0.0421984 0.000765093 0.0359076 0.00191091 0.0300246 0.00425285C0.0241415 0.00659478 0.0187843 0.0100858 0.014266 0.014522C0.00974768 0.0189582 0.00615891 0.0242505 0.00370944 0.0300895C0.00125996 0.0359286 -1.08514e-06 0.0421974 7.0063e-10 0.0485294V10.9059C7.0063e-10 16.9676 4.57412 22.2821 10.6253 22.65C17.2076 23.0524 22.6721 17.8324 22.6721 11.3356V8.16529V8.17765H33.9715C35.2288 8.17765 36.4385 8.87735 36.9097 10.0429C37.8282 12.3194 36.1685 14.4971 34.0085 14.4971H25.8529C25.0096 14.4971 24.2007 14.8321 23.6043 15.4285C23.008 16.0248 22.6729 16.8337 22.6729 17.6771V29.5271H30.9494V22.6729H34.0085C38.4521 22.6729 42.2965 20.115 44.1556 16.3924C46.0147 20.1124 49.8494 22.6721 54.2903 22.6721H64.3826V14.4953H54.2912C53.4536 14.4946 52.6506 14.1616 52.0583 13.5693C51.4661 12.9771 51.1331 12.174 51.1324 11.3365C51.133 10.4987 51.466 9.69552 52.0582 9.10299C52.6504 8.51047 53.4535 8.17705 54.2912 8.17588Z" fill="#2272FF"/>
</g>
</g>
<defs>
<clipPath id="clip0_404_399">
<rect width="64.4118" height="30" fill="white"/>
</clipPath>
</defs>
</svg>
